<?xml version="1.0" encoding="UTF-8" standalone="no"?>
<!DOCTYPE svg PUBLIC "-//W3C//DTD SVG 1.1//EN"
 "http://www.w3.org/Graphics/SVG/1.1/DTD/svg11.dtd">
<!-- Generated by graphviz version 2.43.0 (0)
 -->
<!-- Title: Pele Pages: 1 -->
<svg width="619pt" height="367pt"
 viewBox="0.00 0.00 618.60 366.60" xmlns="http://www.w3.org/2000/svg" xmlns:xlink="http://www.w3.org/1999/xlink">
<g id="graph0" class="graph" transform="scale(1 1) rotate(0) translate(28.8 337.8)">
<title>Pele</title>
<polygon fill="white" stroke="transparent" points="-28.8,28.8 -28.8,-337.8 589.8,-337.8 589.8,28.8 -28.8,28.8"/>
<text text-anchor="middle" x="280.5" y="-294.6" font-family="Arial BoldMT" font-size="13.00">Class Diagram PELE</text>
<!-- m_Group -->
<g id="node1" class="node">
<title>m_Group</title>
<path fill="none" stroke="black" d="M18,-217.5C18,-217.5 138,-217.5 138,-217.5 144,-217.5 150,-223.5 150,-229.5 150,-229.5 150,-260.5 150,-260.5 150,-266.5 144,-272.5 138,-272.5 138,-272.5 18,-272.5 18,-272.5 12,-272.5 6,-266.5 6,-260.5 6,-260.5 6,-229.5 6,-229.5 6,-223.5 12,-217.5 18,-217.5"/>
<text text-anchor="start" x="60.71" y="-259.2" font-family="Arial BoldMT" font-size="11.00">Group</text>
<polyline fill="none" stroke="black" points="6,-253.5 150,-253.5 "/>
<text text-anchor="start" x="13" y="-240.5" font-family="ArialMT" font-size="10.00">discarded_at </text>
<text text-anchor="start" x="73.04" y="-240.5" font-family="Arial ItalicMT" font-size="10.00" fill="#999999">datetime</text>
<text text-anchor="start" x="13" y="-227.5" font-family="ArialMT" font-size="10.00">name </text>
<text text-anchor="start" x="40.79" y="-227.5" font-family="Arial ItalicMT" font-size="10.00" fill="#999999">string (100) ∗</text>
</g>
<!-- m_Lesson -->
<g id="node2" class="node">
<title>m_Lesson</title>
<path fill="none" stroke="black" d="M197,-109C197,-109 317,-109 317,-109 323,-109 329,-115 329,-121 329,-121 329,-133 329,-133 329,-139 323,-145 317,-145 317,-145 197,-145 197,-145 191,-145 185,-139 185,-133 185,-133 185,-121 185,-121 185,-115 191,-109 197,-109"/>
<text text-anchor="start" x="237.26" y="-123.2" font-family="Arial BoldMT" font-size="11.00">Lesson</text>
</g>
<!-- m_Group&#45;&gt;m_Lesson -->
<g id="edge2" class="edge">
<title>m_Group&#45;&gt;m_Lesson</title>
<path fill="none" stroke="black" d="M123.14,-214.75C153.6,-195.01 193.23,-169.33 221.45,-151.04"/>
<ellipse fill="none" stroke="black" cx="121.08" cy="-216.08" rx="2.4" ry="2.4"/>
<ellipse fill="black" stroke="black" cx="228.53" cy="-146.45" rx="2.4" ry="2.4"/>
<polygon fill="black" stroke="black" points="222.63,-152.78 226.52,-147.75 220.34,-149.25 222.63,-152.78"/>
</g>
<!-- m_User -->
<g id="node6" class="node">
<title>m_User</title>
<path fill="none" stroke="black" d="M12,-73.5C12,-73.5 144,-73.5 144,-73.5 150,-73.5 156,-79.5 156,-85.5 156,-85.5 156,-168.5 156,-168.5 156,-174.5 150,-180.5 144,-180.5 144,-180.5 12,-180.5 12,-180.5 6,-180.5 0,-174.5 0,-168.5 0,-168.5 0,-85.5 0,-85.5 0,-79.5 6,-73.5 12,-73.5"/>
<text text-anchor="start" x="64.39" y="-167.2" font-family="Arial BoldMT" font-size="11.00">User</text>
<polyline fill="none" stroke="black" points="0,-161.5 156,-161.5 "/>
<text text-anchor="start" x="7" y="-148.5" font-family="ArialMT" font-size="10.00">discarded_at </text>
<text text-anchor="start" x="67.04" y="-148.5" font-family="Arial ItalicMT" font-size="10.00" fill="#999999">datetime</text>
<text text-anchor="start" x="7" y="-135.5" font-family="ArialMT" font-size="10.00">email </text>
<text text-anchor="start" x="33.67" y="-135.5" font-family="Arial ItalicMT" font-size="10.00" fill="#999999">string (255) ∗ U</text>
<text text-anchor="start" x="7" y="-122.5" font-family="ArialMT" font-size="10.00">login_token </text>
<text text-anchor="start" x="60.93" y="-122.5" font-family="Arial ItalicMT" font-size="10.00" fill="#999999">string</text>
<text text-anchor="start" x="6.84" y="-109.5" font-family="ArialMT" font-size="10.00">login_token_valid_until </text>
<text text-anchor="start" x="110.81" y="-109.5" font-family="Arial ItalicMT" font-size="10.00" fill="#999999">datetime</text>
<text text-anchor="start" x="7" y="-96.5" font-family="ArialMT" font-size="10.00">name </text>
<text text-anchor="start" x="34.79" y="-96.5" font-family="Arial ItalicMT" font-size="10.00" fill="#999999">string</text>
<text text-anchor="start" x="7" y="-83.5" font-family="ArialMT" font-size="10.00">role </text>
<text text-anchor="start" x="26.45" y="-83.5" font-family="Arial ItalicMT" font-size="10.00" fill="#999999">integer ∗</text>
</g>
<!-- m_Group&#45;&gt;m_User -->
<g id="edge1" class="edge">
<title>m_Group&#45;&gt;m_User</title>
<path fill="none" stroke="black" d="M78,-206.55C78,-201.76 78,-196.74 78,-191.68"/>
<ellipse fill="black" stroke="black" cx="78" cy="-214.99" rx="2.4" ry="2.4"/>
<polygon fill="black" stroke="black" points="75.9,-206.59 78,-212.59 80.1,-206.59 75.9,-206.59"/>
<ellipse fill="none" stroke="black" cx="78" cy="-182.95" rx="2.4" ry="2.4"/>
<polygon fill="black" stroke="black" points="80.1,-191.35 78,-185.35 75.9,-191.35 80.1,-191.35"/>
</g>
<!-- m_Pin -->
<g id="node3" class="node">
<title>m_Pin</title>
<path fill="none" stroke="black" d="M165,-0.5C165,-0.5 285,-0.5 285,-0.5 291,-0.5 297,-6.5 297,-12.5 297,-12.5 297,-24.5 297,-24.5 297,-30.5 291,-36.5 285,-36.5 285,-36.5 165,-36.5 165,-36.5 159,-36.5 153,-30.5 153,-24.5 153,-24.5 153,-12.5 153,-12.5 153,-6.5 159,-0.5 165,-0.5"/>
<text text-anchor="start" x="215.05" y="-14.7" font-family="Arial BoldMT" font-size="11.00">Pin</text>
</g>
<!-- m_Score -->
<g id="node4" class="node">
<title>m_Score</title>
<path fill="none" stroke="black" d="M429,-106C429,-106 549,-106 549,-106 555,-106 561,-112 561,-118 561,-118 561,-136 561,-136 561,-142 555,-148 549,-148 549,-148 429,-148 429,-148 423,-148 417,-142 417,-136 417,-136 417,-118 417,-118 417,-112 423,-106 429,-106"/>
<text text-anchor="start" x="472.63" y="-134.7" font-family="Arial BoldMT" font-size="11.00">Score</text>
<polyline fill="none" stroke="black" points="417,-129 561,-129 "/>
<text text-anchor="start" x="424" y="-115.5" font-family="ArialMT" font-size="10.00">attachment </text>
<text text-anchor="start" x="476.25" y="-115.5" font-family="Arial ItalicMT" font-size="10.00" fill="#999999">string</text>
</g>
<!-- m_Song -->
<g id="node5" class="node">
<title>m_Song</title>
<path fill="none" stroke="black" d="M313,-217.5C313,-217.5 433,-217.5 433,-217.5 439,-217.5 445,-223.5 445,-229.5 445,-229.5 445,-260.5 445,-260.5 445,-266.5 439,-272.5 433,-272.5 433,-272.5 313,-272.5 313,-272.5 307,-272.5 301,-266.5 301,-260.5 301,-260.5 301,-229.5 301,-229.5 301,-223.5 307,-217.5 313,-217.5"/>
<text text-anchor="start" x="358.16" y="-259.2" font-family="Arial BoldMT" font-size="11.00">Song</text>
<polyline fill="none" stroke="black" points="301,-253.5 445,-253.5 "/>
<text text-anchor="start" x="308" y="-240.5" font-family="ArialMT" font-size="10.00">discarded_at </text>
<text text-anchor="start" x="368.04" y="-240.5" font-family="Arial ItalicMT" font-size="10.00" fill="#999999">datetime</text>
<text text-anchor="start" x="308" y="-227.5" font-family="ArialMT" font-size="10.00">title </text>
<text text-anchor="start" x="326.34" y="-227.5" font-family="Arial ItalicMT" font-size="10.00" fill="#999999">string ∗</text>
</g>
<!-- m_Song&#45;&gt;m_Lesson -->
<g id="edge6" class="edge">
<title>m_Song&#45;&gt;m_Lesson</title>
<path fill="none" stroke="black" d="M342.94,-213.94C323.97,-194.97 299.76,-170.76 281.87,-152.87"/>
<ellipse fill="none" stroke="black" cx="344.69" cy="-215.69" rx="2.4" ry="2.4"/>
<ellipse fill="black" stroke="black" cx="275.84" cy="-146.84" rx="2.4" ry="2.4"/>
<polygon fill="black" stroke="black" points="283.26,-151.29 277.54,-148.54 280.29,-154.26 283.26,-151.29"/>
</g>
<!-- m_Song&#45;&gt;m_Pin -->
<g id="edge3" class="edge">
<title>m_Song&#45;&gt;m_Pin</title>
<path fill="none" stroke="black" d="M376,-212.38C377.81,-175.17 375.2,-113.35 344,-73 333.27,-59.12 318.15,-48.75 302.27,-41.02"/>
<ellipse fill="none" stroke="black" cx="375.86" cy="-214.85" rx="2.4" ry="2.4"/>
<ellipse fill="black" stroke="black" cx="294.5" cy="-37.53" rx="2.4" ry="2.4"/>
<polygon fill="black" stroke="black" points="303.03,-39.06 296.69,-38.52 301.3,-42.89 303.03,-39.06"/>
</g>
<!-- m_Song&#45;&gt;m_Score -->
<g id="edge5" class="edge">
<title>m_Song&#45;&gt;m_Score</title>
<path fill="none" stroke="black" d="M403.13,-213.87C421.01,-195.99 443.52,-173.48 461.01,-155.99"/>
<ellipse fill="none" stroke="black" cx="401.31" cy="-215.69" rx="2.4" ry="2.4"/>
<ellipse fill="black" stroke="black" cx="466.96" cy="-150.04" rx="2.4" ry="2.4"/>
<polygon fill="black" stroke="black" points="462.51,-157.46 465.26,-151.74 459.54,-154.49 462.51,-157.46"/>
</g>
<!-- m_User&#45;&gt;m_Pin -->
<g id="edge4" class="edge">
<title>m_User&#45;&gt;m_Pin</title>
<path fill="none" stroke="black" d="M154.94,-70.25C168.16,-60.68 181.24,-51.21 192.44,-43.09"/>
<ellipse fill="none" stroke="black" cx="152.58" cy="-71.97" rx="2.4" ry="2.4"/>
<ellipse fill="black" stroke="black" cx="199.44" cy="-38.02" rx="2.4" ry="2.4"/>
<polygon fill="black" stroke="black" points="193.87,-44.65 197.49,-39.43 191.4,-41.25 193.87,-44.65"/>
</g>
</g>
</svg>
