<?xml version="1.0" encoding="UTF-8" standalone="no"?>
<!DOCTYPE svg PUBLIC "-//W3C//DTD SVG 1.1//EN"
 "http://www.w3.org/Graphics/SVG/1.1/DTD/svg11.dtd">
<!-- Generated by graphviz version 2.43.0 (0)
 -->
<!-- Title: Pele Pages: 1 -->
<svg width="619pt" height="452pt"
 viewBox="0.00 0.00 618.60 451.60" xmlns="http://www.w3.org/2000/svg" xmlns:xlink="http://www.w3.org/1999/xlink">
<g id="graph0" class="graph" transform="scale(1 1) rotate(0) translate(28.8 422.8)">
<title>Pele</title>
<polygon fill="white" stroke="transparent" points="-28.8,28.8 -28.8,-422.8 589.8,-422.8 589.8,28.8 -28.8,28.8"/>
<text text-anchor="middle" x="280.5" y="-379.6" font-family="Arial BoldMT" font-size="13.00">Class Diagram PELE</text>
<!-- m_Group -->
<g id="node1" class="node">
<title>m_Group</title>
<path fill="none" stroke="black" d="M18,-223.5C18,-223.5 138,-223.5 138,-223.5 144,-223.5 150,-229.5 150,-235.5 150,-235.5 150,-266.5 150,-266.5 150,-272.5 144,-278.5 138,-278.5 138,-278.5 18,-278.5 18,-278.5 12,-278.5 6,-272.5 6,-266.5 6,-266.5 6,-235.5 6,-235.5 6,-229.5 12,-223.5 18,-223.5"/>
<text text-anchor="start" x="60.71" y="-265.2" font-family="Arial BoldMT" font-size="11.00">Group</text>
<polyline fill="none" stroke="black" points="6,-259.5 150,-259.5 "/>
<text text-anchor="start" x="13" y="-246.5" font-family="ArialMT" font-size="10.00">discarded_at </text>
<text text-anchor="start" x="73.04" y="-246.5" font-family="Arial ItalicMT" font-size="10.00" fill="#999999">datetime</text>
<text text-anchor="start" x="13" y="-233.5" font-family="ArialMT" font-size="10.00">name </text>
<text text-anchor="start" x="40.79" y="-233.5" font-family="Arial ItalicMT" font-size="10.00" fill="#999999">string (100) ∗</text>
</g>
<!-- m_Lesson -->
<g id="node2" class="node">
<title>m_Lesson</title>
<path fill="none" stroke="black" d="M197,-115C197,-115 317,-115 317,-115 323,-115 329,-121 329,-127 329,-127 329,-139 329,-139 329,-145 323,-151 317,-151 317,-151 197,-151 197,-151 191,-151 185,-145 185,-139 185,-139 185,-127 185,-127 185,-121 191,-115 197,-115"/>
<text text-anchor="start" x="237.26" y="-129.2" font-family="Arial BoldMT" font-size="11.00">Lesson</text>
</g>
<!-- m_Group&#45;&gt;m_Lesson -->
<g id="edge2" class="edge">
<title>m_Group&#45;&gt;m_Lesson</title>
<path fill="none" stroke="black" d="M123.14,-220.75C153.6,-201.01 193.23,-175.33 221.45,-157.04"/>
<ellipse fill="none" stroke="black" cx="121.08" cy="-222.08" rx="2.4" ry="2.4"/>
<ellipse fill="black" stroke="black" cx="228.53" cy="-152.45" rx="2.4" ry="2.4"/>
<polygon fill="black" stroke="black" points="222.63,-158.78 226.52,-153.75 220.34,-155.25 222.63,-158.78"/>
</g>
<!-- m_Song -->
<g id="node5" class="node">
<title>m_Song</title>
<path fill="none" stroke="black" d="M371,-223.5C371,-223.5 491,-223.5 491,-223.5 497,-223.5 503,-229.5 503,-235.5 503,-235.5 503,-266.5 503,-266.5 503,-272.5 497,-278.5 491,-278.5 491,-278.5 371,-278.5 371,-278.5 365,-278.5 359,-272.5 359,-266.5 359,-266.5 359,-235.5 359,-235.5 359,-229.5 365,-223.5 371,-223.5"/>
<text text-anchor="start" x="416.16" y="-265.2" font-family="Arial BoldMT" font-size="11.00">Song</text>
<polyline fill="none" stroke="black" points="359,-259.5 503,-259.5 "/>
<text text-anchor="start" x="366" y="-246.5" font-family="ArialMT" font-size="10.00">discarded_at </text>
<text text-anchor="start" x="426.04" y="-246.5" font-family="Arial ItalicMT" font-size="10.00" fill="#999999">datetime</text>
<text text-anchor="start" x="366" y="-233.5" font-family="ArialMT" font-size="10.00">title </text>
<text text-anchor="start" x="384.34" y="-233.5" font-family="Arial ItalicMT" font-size="10.00" fill="#999999">string ∗</text>
</g>
<!-- m_User -->
<g id="node7" class="node">
<title>m_User</title>
<path fill="none" stroke="black" d="M12,-79.5C12,-79.5 144,-79.5 144,-79.5 150,-79.5 156,-85.5 156,-91.5 156,-91.5 156,-174.5 156,-174.5 156,-180.5 150,-186.5 144,-186.5 144,-186.5 12,-186.5 12,-186.5 6,-186.5 0,-180.5 0,-174.5 0,-174.5 0,-91.5 0,-91.5 0,-85.5 6,-79.5 12,-79.5"/>
<text text-anchor="start" x="64.39" y="-173.2" font-family="Arial BoldMT" font-size="11.00">User</text>
<polyline fill="none" stroke="black" points="0,-167.5 156,-167.5 "/>
<text text-anchor="start" x="7" y="-154.5" font-family="ArialMT" font-size="10.00">discarded_at </text>
<text text-anchor="start" x="67.04" y="-154.5" font-family="Arial ItalicMT" font-size="10.00" fill="#999999">datetime</text>
<text text-anchor="start" x="7" y="-141.5" font-family="ArialMT" font-size="10.00">email </text>
<text text-anchor="start" x="33.67" y="-141.5" font-family="Arial ItalicMT" font-size="10.00" fill="#999999">string (255) ∗ U</text>
<text text-anchor="start" x="7" y="-128.5" font-family="ArialMT" font-size="10.00">login_token </text>
<text text-anchor="start" x="60.93" y="-128.5" font-family="Arial ItalicMT" font-size="10.00" fill="#999999">string</text>
<text text-anchor="start" x="6.84" y="-115.5" font-family="ArialMT" font-size="10.00">login_token_valid_until </text>
<text text-anchor="start" x="110.81" y="-115.5" font-family="Arial ItalicMT" font-size="10.00" fill="#999999">datetime</text>
<text text-anchor="start" x="7" y="-102.5" font-family="ArialMT" font-size="10.00">name </text>
<text text-anchor="start" x="34.79" y="-102.5" font-family="Arial ItalicMT" font-size="10.00" fill="#999999">string</text>
<text text-anchor="start" x="7" y="-89.5" font-family="ArialMT" font-size="10.00">role </text>
<text text-anchor="start" x="26.45" y="-89.5" font-family="Arial ItalicMT" font-size="10.00" fill="#999999">integer ∗</text>
</g>
<!-- m_Group&#45;&gt;m_User -->
<g id="edge1" class="edge">
<title>m_Group&#45;&gt;m_User</title>
<path fill="none" stroke="black" d="M78,-212.55C78,-207.76 78,-202.74 78,-197.68"/>
<ellipse fill="black" stroke="black" cx="78" cy="-220.99" rx="2.4" ry="2.4"/>
<polygon fill="black" stroke="black" points="75.9,-212.59 78,-218.59 80.1,-212.59 75.9,-212.59"/>
<ellipse fill="none" stroke="black" cx="78" cy="-188.95" rx="2.4" ry="2.4"/>
<polygon fill="black" stroke="black" points="80.1,-197.35 78,-191.35 75.9,-197.35 80.1,-197.35"/>
</g>
<!-- m_Pin -->
<g id="node3" class="node">
<title>m_Pin</title>
<path fill="none" stroke="black" d="M107,-0.5C107,-0.5 227,-0.5 227,-0.5 233,-0.5 239,-6.5 239,-12.5 239,-12.5 239,-30.5 239,-30.5 239,-36.5 233,-42.5 227,-42.5 227,-42.5 107,-42.5 107,-42.5 101,-42.5 95,-36.5 95,-30.5 95,-30.5 95,-12.5 95,-12.5 95,-6.5 101,-0.5 107,-0.5"/>
<text text-anchor="start" x="157.05" y="-29.2" font-family="Arial BoldMT" font-size="11.00">Pin</text>
<polyline fill="none" stroke="black" points="95,-23.5 239,-23.5 "/>
<text text-anchor="start" x="102" y="-10" font-family="ArialMT" font-size="10.00">pinnable_type </text>
<text text-anchor="start" x="167.05" y="-10" font-family="Arial ItalicMT" font-size="10.00" fill="#999999">string ∗</text>
</g>
<!-- m_Lesson&#45;&gt;m_Pin -->
<g id="edge5" class="edge">
<title>m_Lesson&#45;&gt;m_Pin</title>
<path fill="none" stroke="black" d="M239.82,-111.1C225.89,-94.15 206.11,-70.09 190.68,-51.31"/>
<ellipse fill="none" stroke="black" cx="241.41" cy="-113.04" rx="2.4" ry="2.4"/>
<ellipse fill="black" stroke="black" cx="185.24" cy="-44.69" rx="2.4" ry="2.4"/>
<polygon fill="black" stroke="black" points="192.2,-49.85 186.77,-46.55 188.95,-52.52 192.2,-49.85"/>
</g>
<!-- m_Score -->
<g id="node4" class="node">
<title>m_Score</title>
<path fill="none" stroke="black" d="M429,-112C429,-112 549,-112 549,-112 555,-112 561,-118 561,-124 561,-124 561,-142 561,-142 561,-148 555,-154 549,-154 549,-154 429,-154 429,-154 423,-154 417,-148 417,-142 417,-142 417,-124 417,-124 417,-118 423,-112 429,-112"/>
<text text-anchor="start" x="472.63" y="-140.7" font-family="Arial BoldMT" font-size="11.00">Score</text>
<polyline fill="none" stroke="black" points="417,-135 561,-135 "/>
<text text-anchor="start" x="424" y="-121.5" font-family="ArialMT" font-size="10.00">attachment </text>
<text text-anchor="start" x="476.25" y="-121.5" font-family="Arial ItalicMT" font-size="10.00" fill="#999999">string</text>
</g>
<!-- m_Song&#45;&gt;m_Lesson -->
<g id="edge9" class="edge">
<title>m_Song&#45;&gt;m_Lesson</title>
<path fill="none" stroke="black" d="M386.72,-220.48C357.28,-200.85 319.16,-175.44 291.88,-157.25"/>
<ellipse fill="none" stroke="black" cx="389.08" cy="-222.06" rx="2.4" ry="2.4"/>
<ellipse fill="black" stroke="black" cx="284.71" cy="-152.47" rx="2.4" ry="2.4"/>
<polygon fill="black" stroke="black" points="292.86,-155.39 286.71,-153.8 290.53,-158.88 292.86,-155.39"/>
</g>
<!-- m_Song&#45;&gt;m_Pin -->
<g id="edge6" class="edge">
<title>m_Song&#45;&gt;m_Pin</title>
<path fill="none" stroke="black" d="M416.85,-219.06C395.33,-172.54 355.65,-88.9 344,-79 317.61,-56.57 282.23,-43.01 250.03,-34.84"/>
<ellipse fill="none" stroke="black" cx="417.87" cy="-221.27" rx="2.4" ry="2.4"/>
<ellipse fill="black" stroke="black" cx="241.59" cy="-32.82" rx="2.4" ry="2.4"/>
<polygon fill="black" stroke="black" points="250.25,-32.73 243.92,-33.38 249.27,-36.81 250.25,-32.73"/>
</g>
<!-- m_Song&#45;&gt;m_Score -->
<g id="edge8" class="edge">
<title>m_Song&#45;&gt;m_Score</title>
<path fill="none" stroke="black" d="M446.58,-218.85C455.05,-201.89 465.49,-181.01 473.9,-164.21"/>
<ellipse fill="none" stroke="black" cx="445.38" cy="-221.24" rx="2.4" ry="2.4"/>
<ellipse fill="black" stroke="black" cx="477.76" cy="-156.49" rx="2.4" ry="2.4"/>
<polygon fill="black" stroke="black" points="475.88,-164.94 476.68,-158.63 472.12,-163.06 475.88,-164.94"/>
</g>
<!-- m_Songwriter -->
<g id="node6" class="node">
<title>m_Songwriter</title>
<path fill="none" stroke="black" d="M371,-315.5C371,-315.5 491,-315.5 491,-315.5 497,-315.5 503,-321.5 503,-327.5 503,-327.5 503,-345.5 503,-345.5 503,-351.5 497,-357.5 491,-357.5 491,-357.5 371,-357.5 371,-357.5 365,-357.5 359,-351.5 359,-345.5 359,-345.5 359,-327.5 359,-327.5 359,-321.5 365,-315.5 371,-315.5"/>
<text text-anchor="start" x="402.71" y="-344.2" font-family="Arial BoldMT" font-size="11.00">Songwriter</text>
<polyline fill="none" stroke="black" points="359,-338.5 503,-338.5 "/>
<text text-anchor="start" x="366" y="-325" font-family="ArialMT" font-size="10.00">name </text>
<text text-anchor="start" x="393.79" y="-325" font-family="Arial ItalicMT" font-size="10.00" fill="#999999">string</text>
</g>
<!-- m_Songwriter&#45;&gt;m_Song -->
<g id="edge4" class="edge">
<title>m_Songwriter&#45;&gt;m_Song</title>
<path fill="none" stroke="black" d="M431,-310.22C431,-303.75 431,-296.65 431,-289.7"/>
<ellipse fill="none" stroke="black" cx="431" cy="-312.89" rx="2.4" ry="2.4"/>
<ellipse fill="none" stroke="black" cx="431" cy="-281.06" rx="2.4" ry="2.4"/>
<polygon fill="black" stroke="black" points="433.1,-289.46 431,-283.46 428.9,-289.46 433.1,-289.46"/>
</g>
<!-- m_User&#45;&gt;m_Pin -->
<g id="edge7" class="edge">
<title>m_User&#45;&gt;m_Pin</title>
<path fill="none" stroke="black" d="M123.94,-75.48C130.86,-66.97 137.72,-58.52 143.88,-50.95"/>
<ellipse fill="none" stroke="black" cx="122.19" cy="-77.63" rx="2.4" ry="2.4"/>
<ellipse fill="black" stroke="black" cx="149.22" cy="-44.37" rx="2.4" ry="2.4"/>
<polygon fill="black" stroke="black" points="145.55,-52.22 147.71,-46.24 142.29,-49.57 145.55,-52.22"/>
</g>
</g>
</svg>
