<?xml version="1.0" encoding="UTF-8" standalone="no"?>
<!DOCTYPE svg PUBLIC "-//W3C//DTD SVG 1.1//EN"
 "http://www.w3.org/Graphics/SVG/1.1/DTD/svg11.dtd">
<!-- Generated by graphviz version 2.43.0 (0)
 -->
<!-- Title: Pele Pages: 1 -->
<svg width="619pt" height="465pt"
 viewBox="0.00 0.00 618.60 464.60" xmlns="http://www.w3.org/2000/svg" xmlns:xlink="http://www.w3.org/1999/xlink">
<g id="graph0" class="graph" transform="scale(1 1) rotate(0) translate(28.8 435.8)">
<title>Pele</title>
<polygon fill="white" stroke="transparent" points="-28.8,28.8 -28.8,-435.8 589.8,-435.8 589.8,28.8 -28.8,28.8"/>
<text text-anchor="middle" x="280.5" y="-392.6" font-family="Arial BoldMT" font-size="13.00">Class Diagram PELE</text>
<!-- m_Group -->
<g id="node1" class="node">
<title>m_Group</title>
<path fill="none" stroke="black" d="M18,-230C18,-230 138,-230 138,-230 144,-230 150,-236 150,-242 150,-242 150,-273 150,-273 150,-279 144,-285 138,-285 138,-285 18,-285 18,-285 12,-285 6,-279 6,-273 6,-273 6,-242 6,-242 6,-236 12,-230 18,-230"/>
<text text-anchor="start" x="60.71" y="-271.7" font-family="Arial BoldMT" font-size="11.00">Group</text>
<polyline fill="none" stroke="black" points="6,-266 150,-266 "/>
<text text-anchor="start" x="13" y="-253" font-family="ArialMT" font-size="10.00">discarded_at </text>
<text text-anchor="start" x="73.04" y="-253" font-family="Arial ItalicMT" font-size="10.00" fill="#999999">datetime</text>
<text text-anchor="start" x="13" y="-240" font-family="ArialMT" font-size="10.00">name </text>
<text text-anchor="start" x="40.79" y="-240" font-family="Arial ItalicMT" font-size="10.00" fill="#999999">string (100) ∗</text>
</g>
<!-- m_Lesson -->
<g id="node2" class="node">
<title>m_Lesson</title>
<path fill="none" stroke="black" d="M197,-115C197,-115 317,-115 317,-115 323,-115 329,-121 329,-127 329,-127 329,-139 329,-139 329,-145 323,-151 317,-151 317,-151 197,-151 197,-151 191,-151 185,-145 185,-139 185,-139 185,-127 185,-127 185,-121 191,-115 197,-115"/>
<text text-anchor="start" x="237.26" y="-129.2" font-family="Arial BoldMT" font-size="11.00">Lesson</text>
</g>
<!-- m_Group&#45;&gt;m_Lesson -->
<g id="edge2" class="edge">
<title>m_Group&#45;&gt;m_Lesson</title>
<path fill="none" stroke="black" d="M121.01,-227.07C152.31,-205.64 194.13,-177.03 223.09,-157.21"/>
<ellipse fill="none" stroke="black" cx="118.82" cy="-228.56" rx="2.4" ry="2.4"/>
<ellipse fill="black" stroke="black" cx="230.03" cy="-152.46" rx="2.4" ry="2.4"/>
<polygon fill="black" stroke="black" points="224.28,-158.93 228.05,-153.81 221.91,-155.47 224.28,-158.93"/>
</g>
<!-- m_Song -->
<g id="node5" class="node">
<title>m_Song</title>
<path fill="none" stroke="black" d="M371,-223.5C371,-223.5 491,-223.5 491,-223.5 497,-223.5 503,-229.5 503,-235.5 503,-235.5 503,-279.5 503,-279.5 503,-285.5 497,-291.5 491,-291.5 491,-291.5 371,-291.5 371,-291.5 365,-291.5 359,-285.5 359,-279.5 359,-279.5 359,-235.5 359,-235.5 359,-229.5 365,-223.5 371,-223.5"/>
<text text-anchor="start" x="416.16" y="-278.2" font-family="Arial BoldMT" font-size="11.00">Song</text>
<polyline fill="none" stroke="black" points="359,-272.5 503,-272.5 "/>
<text text-anchor="start" x="366" y="-259" font-family="ArialMT" font-size="10.00">cached_tag_list </text>
<text text-anchor="start" x="438.27" y="-259" font-family="Arial ItalicMT" font-size="10.00" fill="#999999">string (1024)</text>
<text text-anchor="start" x="366" y="-246" font-family="ArialMT" font-size="10.00">discarded_at </text>
<text text-anchor="start" x="426.04" y="-246" font-family="Arial ItalicMT" font-size="10.00" fill="#999999">datetime</text>
<text text-anchor="start" x="366" y="-233" font-family="ArialMT" font-size="10.00">title </text>
<text text-anchor="start" x="384.34" y="-233" font-family="Arial ItalicMT" font-size="10.00" fill="#999999">string ∗</text>
</g>
<!-- m_User -->
<g id="node7" class="node">
<title>m_User</title>
<path fill="none" stroke="black" d="M12,-79.5C12,-79.5 144,-79.5 144,-79.5 150,-79.5 156,-85.5 156,-91.5 156,-91.5 156,-174.5 156,-174.5 156,-180.5 150,-186.5 144,-186.5 144,-186.5 12,-186.5 12,-186.5 6,-186.5 0,-180.5 0,-174.5 0,-174.5 0,-91.5 0,-91.5 0,-85.5 6,-79.5 12,-79.5"/>
<text text-anchor="start" x="64.39" y="-173.2" font-family="Arial BoldMT" font-size="11.00">User</text>
<polyline fill="none" stroke="black" points="0,-167.5 156,-167.5 "/>
<text text-anchor="start" x="7" y="-154.5" font-family="ArialMT" font-size="10.00">discarded_at </text>
<text text-anchor="start" x="67.04" y="-154.5" font-family="Arial ItalicMT" font-size="10.00" fill="#999999">datetime</text>
<text text-anchor="start" x="7" y="-141.5" font-family="ArialMT" font-size="10.00">email </text>
<text text-anchor="start" x="33.67" y="-141.5" font-family="Arial ItalicMT" font-size="10.00" fill="#999999">string (255) ∗ U</text>
<text text-anchor="start" x="7" y="-128.5" font-family="ArialMT" font-size="10.00">login_token </text>
<text text-anchor="start" x="60.93" y="-128.5" font-family="Arial ItalicMT" font-size="10.00" fill="#999999">string</text>
<text text-anchor="start" x="6.84" y="-115.5" font-family="ArialMT" font-size="10.00">login_token_valid_until </text>
<text text-anchor="start" x="110.81" y="-115.5" font-family="Arial ItalicMT" font-size="10.00" fill="#999999">datetime</text>
<text text-anchor="start" x="7" y="-102.5" font-family="ArialMT" font-size="10.00">name </text>
<text text-anchor="start" x="34.79" y="-102.5" font-family="Arial ItalicMT" font-size="10.00" fill="#999999">string</text>
<text text-anchor="start" x="7" y="-89.5" font-family="ArialMT" font-size="10.00">role </text>
<text text-anchor="start" x="26.45" y="-89.5" font-family="Arial ItalicMT" font-size="10.00" fill="#999999">integer ∗</text>
</g>
<!-- m_Group&#45;&gt;m_User -->
<g id="edge1" class="edge">
<title>m_Group&#45;&gt;m_User</title>
<path fill="none" stroke="black" d="M78,-218.94C78,-212.18 78,-204.97 78,-197.71"/>
<ellipse fill="black" stroke="black" cx="78" cy="-227.52" rx="2.4" ry="2.4"/>
<polygon fill="black" stroke="black" points="75.9,-219.12 78,-225.12 80.1,-219.12 75.9,-219.12"/>
<ellipse fill="none" stroke="black" cx="78" cy="-189.11" rx="2.4" ry="2.4"/>
<polygon fill="black" stroke="black" points="80.1,-197.51 78,-191.51 75.9,-197.51 80.1,-197.51"/>
</g>
<!-- m_Pin -->
<g id="node3" class="node">
<title>m_Pin</title>
<path fill="none" stroke="black" d="M107,-0.5C107,-0.5 227,-0.5 227,-0.5 233,-0.5 239,-6.5 239,-12.5 239,-12.5 239,-30.5 239,-30.5 239,-36.5 233,-42.5 227,-42.5 227,-42.5 107,-42.5 107,-42.5 101,-42.5 95,-36.5 95,-30.5 95,-30.5 95,-12.5 95,-12.5 95,-6.5 101,-0.5 107,-0.5"/>
<text text-anchor="start" x="157.05" y="-29.2" font-family="Arial BoldMT" font-size="11.00">Pin</text>
<polyline fill="none" stroke="black" points="95,-23.5 239,-23.5 "/>
<text text-anchor="start" x="102" y="-10" font-family="ArialMT" font-size="10.00">pinnable_type </text>
<text text-anchor="start" x="167.05" y="-10" font-family="Arial ItalicMT" font-size="10.00" fill="#999999">string ∗</text>
</g>
<!-- m_Lesson&#45;&gt;m_Pin -->
<g id="edge5" class="edge">
<title>m_Lesson&#45;&gt;m_Pin</title>
<path fill="none" stroke="black" d="M239.82,-111.1C225.89,-94.15 206.11,-70.09 190.68,-51.31"/>
<ellipse fill="none" stroke="black" cx="241.41" cy="-113.04" rx="2.4" ry="2.4"/>
<ellipse fill="black" stroke="black" cx="185.24" cy="-44.69" rx="2.4" ry="2.4"/>
<polygon fill="black" stroke="black" points="192.2,-49.85 186.77,-46.55 188.95,-52.52 192.2,-49.85"/>
</g>
<!-- m_Score -->
<g id="node4" class="node">
<title>m_Score</title>
<path fill="none" stroke="black" d="M429,-92.5C429,-92.5 549,-92.5 549,-92.5 555,-92.5 561,-98.5 561,-104.5 561,-104.5 561,-161.5 561,-161.5 561,-167.5 555,-173.5 549,-173.5 549,-173.5 429,-173.5 429,-173.5 423,-173.5 417,-167.5 417,-161.5 417,-161.5 417,-104.5 417,-104.5 417,-98.5 423,-92.5 429,-92.5"/>
<text text-anchor="start" x="472.63" y="-160.2" font-family="Arial BoldMT" font-size="11.00">Score</text>
<polyline fill="none" stroke="black" points="417,-154.5 561,-154.5 "/>
<text text-anchor="start" x="424" y="-141.5" font-family="ArialMT" font-size="10.00">attachment </text>
<text text-anchor="start" x="476.25" y="-141.5" font-family="Arial ItalicMT" font-size="10.00" fill="#999999">string</text>
<text text-anchor="start" x="424" y="-128.5" font-family="ArialMT" font-size="10.00">chord_notation </text>
<text text-anchor="start" x="492.94" y="-128.5" font-family="Arial ItalicMT" font-size="10.00" fill="#999999">boolean</text>
<text text-anchor="start" x="424" y="-115.5" font-family="ArialMT" font-size="10.00">standard_notation </text>
<text text-anchor="start" x="506.84" y="-115.5" font-family="Arial ItalicMT" font-size="10.00" fill="#999999">boolean</text>
<text text-anchor="start" x="424" y="-102.5" font-family="ArialMT" font-size="10.00">tablature_notation </text>
<text text-anchor="start" x="506.84" y="-102.5" font-family="Arial ItalicMT" font-size="10.00" fill="#999999">boolean</text>
</g>
<!-- m_Song&#45;&gt;m_Lesson -->
<g id="edge9" class="edge">
<title>m_Song&#45;&gt;m_Lesson</title>
<path fill="none" stroke="black" d="M379.61,-220.32C350.92,-200.12 315.99,-175.53 290.76,-157.77"/>
<ellipse fill="none" stroke="black" cx="381.95" cy="-221.97" rx="2.4" ry="2.4"/>
<ellipse fill="black" stroke="black" cx="283.56" cy="-152.7" rx="2.4" ry="2.4"/>
<polygon fill="black" stroke="black" points="291.64,-155.82 285.53,-154.08 289.22,-159.25 291.64,-155.82"/>
</g>
<!-- m_Song&#45;&gt;m_Pin -->
<g id="edge6" class="edge">
<title>m_Song&#45;&gt;m_Pin</title>
<path fill="none" stroke="black" d="M414.29,-218.48C392.4,-169.35 355.45,-88.88 344,-79 317.78,-56.37 282.42,-42.79 250.2,-34.64"/>
<ellipse fill="none" stroke="black" cx="415.38" cy="-220.94" rx="2.4" ry="2.4"/>
<ellipse fill="black" stroke="black" cx="241.75" cy="-32.63" rx="2.4" ry="2.4"/>
<polygon fill="black" stroke="black" points="250.41,-32.53 244.08,-33.19 249.44,-36.62 250.41,-32.53"/>
</g>
<!-- m_Song&#45;&gt;m_Score -->
<g id="edge8" class="edge">
<title>m_Song&#45;&gt;m_Score</title>
<path fill="none" stroke="black" d="M448.77,-218.97C454.07,-207.77 459.97,-195.32 465.57,-183.48"/>
<ellipse fill="none" stroke="black" cx="447.72" cy="-221.18" rx="2.4" ry="2.4"/>
<ellipse fill="black" stroke="black" cx="469.17" cy="-175.88" rx="2.4" ry="2.4"/>
<polygon fill="black" stroke="black" points="467.47,-184.37 468.14,-178.05 463.68,-182.58 467.47,-184.37"/>
</g>
<!-- m_Songwriter -->
<g id="node6" class="node">
<title>m_Songwriter</title>
<path fill="none" stroke="black" d="M371,-328.5C371,-328.5 491,-328.5 491,-328.5 497,-328.5 503,-334.5 503,-340.5 503,-340.5 503,-358.5 503,-358.5 503,-364.5 497,-370.5 491,-370.5 491,-370.5 371,-370.5 371,-370.5 365,-370.5 359,-364.5 359,-358.5 359,-358.5 359,-340.5 359,-340.5 359,-334.5 365,-328.5 371,-328.5"/>
<text text-anchor="start" x="402.71" y="-357.2" font-family="Arial BoldMT" font-size="11.00">Songwriter</text>
<polyline fill="none" stroke="black" points="359,-351.5 503,-351.5 "/>
<text text-anchor="start" x="366" y="-338" font-family="ArialMT" font-size="10.00">name </text>
<text text-anchor="start" x="393.79" y="-338" font-family="Arial ItalicMT" font-size="10.00" fill="#999999">string</text>
</g>
<!-- m_Songwriter&#45;&gt;m_Song -->
<g id="edge4" class="edge">
<title>m_Songwriter&#45;&gt;m_Song</title>
<path fill="none" stroke="black" d="M431,-323.11C431,-316.68 431,-309.58 431,-302.52"/>
<ellipse fill="none" stroke="black" cx="431" cy="-325.68" rx="2.4" ry="2.4"/>
<ellipse fill="none" stroke="black" cx="431" cy="-293.95" rx="2.4" ry="2.4"/>
<polygon fill="black" stroke="black" points="433.1,-302.35 431,-296.35 428.9,-302.35 433.1,-302.35"/>
</g>
<!-- m_User&#45;&gt;m_Pin -->
<g id="edge7" class="edge">
<title>m_User&#45;&gt;m_Pin</title>
<path fill="none" stroke="black" d="M123.94,-75.48C130.86,-66.97 137.72,-58.52 143.88,-50.95"/>
<ellipse fill="none" stroke="black" cx="122.19" cy="-77.63" rx="2.4" ry="2.4"/>
<ellipse fill="black" stroke="black" cx="149.22" cy="-44.37" rx="2.4" ry="2.4"/>
<polygon fill="black" stroke="black" points="145.55,-52.22 147.71,-46.24 142.29,-49.57 145.55,-52.22"/>
</g>
</g>
</svg>
